<?xml version="1.0" standalone="no"?><!DOCTYPE svg PUBLIC "-//W3C//DTD SVG 1.1//EN" "http://www.w3.org/Graphics/SVG/1.1/DTD/svg11.dtd"><svg t="1677423050326" class="icon" viewBox="0 0 1024 1024" version="1.1" xmlns="http://www.w3.org/2000/svg" p-id="4175" width="128" height="128" xmlns:xlink="http://www.w3.org/1999/xlink"><path d="M591.5136 876.3392h123.9552c103.168 0 186.7776-83.6096 186.7776-186.7776v-156.4672c0-44.1344-35.7888-79.9232-79.9232-79.9232H698.368c-103.168 0-186.7776 83.6096-186.7776 186.7776v156.4672c0.0512 44.1344 35.7888 79.9232 79.9232 79.9232z" fill="#FFBE0A" p-id="4176"></path><path d="M744.96 162.1504h-64.512v-19.6096c0-19.8144-16.0256-35.84-35.84-35.84s-35.84 16.0256-35.84 35.84v19.6096H415.0272v-19.6096c0-19.8144-16.0256-35.84-35.84-35.84s-35.84 16.0256-35.84 35.84v19.6096H279.296c-98.816 0-179.2 80.384-179.2 179.2v372.0704c0 98.816 80.384 179.2 179.2 179.2h465.664c98.816 0 179.2-80.384 179.2-179.2V341.3504c0-98.816-80.384-179.2-179.2-179.2z m-465.664 71.68h64.0512v25.2416c0 19.8144 16.0256 35.84 35.84 35.84s35.84-16.0256 35.84-35.84v-25.2416h193.7408v25.2416c0 19.8144 16.0256 35.84 35.84 35.84s35.84-16.0256 35.84-35.84v-25.2416h64.4608c59.2896 0 107.52 48.2304 107.52 107.52v10.496H171.776v-10.496c0-59.2896 48.2304-107.52 107.52-107.52z m465.664 587.1104H279.296c-59.2896 0-107.52-48.2304-107.52-107.52V423.5264H852.48v289.8944c0 59.2896-48.2304 107.52-107.52 107.52z" fill="#34332E" p-id="4177"></path><path d="M729.8048 704.2048h-416.256c-19.8144 0-35.84-16.0256-35.84-35.84s16.0256-35.84 35.84-35.84h416.256c19.8144 0 35.84 16.0256 35.84 35.84s-16.0256 35.84-35.84 35.84zM512.1024 563.8656H313.5488c-19.8144 0-35.84-16.0256-35.84-35.84s16.0256-35.84 35.84-35.84h198.6048c19.8144 0 35.84 16.0256 35.84 35.84s-16.0768 35.84-35.8912 35.84z" fill="#34332E" p-id="4178"></path></svg>